<svg version="1.1" xmlns="http://www.w3.org/2000/svg" x="0" y="0" viewBox="0 0 152 42" xml:space="preserve" enable-background="new 0 0 152 42"><g class="nc-icon-wrapper"><g id="Shape_3_1_" class="st0" enable-background="new"><g id="Shape_3"><linearGradient id="SVGID_1_" gradientUnits="userSpaceOnUse" x1="0" y1="20.999" x2="37.999" y2="20.999"><stop offset="0" stop-color="#9C1E82"/><stop offset="1" stop-color="#417DBC"/></linearGradient><path class="st1" d="M37.99 13.46c.11-2.2-.99-4.01-2.93-5.04-4.36-2.5-8.71-5-13.07-7.5-1.88-1.24-4.07-1.21-5.96-.01 0 0-12 6.89-13.1 7.52-1.97 1.01-3 2.86-2.93 5.04v15.08c0 2.26.89 3.96 2.93 5.04L16 41.09c1.88 1.24 4.07 1.21 5.96.01 0 0 12.01-6.89 13.1-7.52 1.97-1.01 3-2.86 2.93-5.04.03-5.02 0-10.06 0-15.08zm-6.63 19.43L20.7 39.01c-1.14.63-2.19.73-3.35.04-2.16-1.23-9.25-5.31-9.25-5.31-1.42-1-1.41-1.94 0-2.82 3.06-1.74 6.12-3.48 9.18-5.23 1.36-.78 2.06-.76 3.4 0l4.73 2.69c.98.6.81 1.31-.07 1.82l-8.55 4.97c-.34.2-.27.59.17.86l.99.61c.56.35.85.24 1.46-.12 2.64-1.53 5.28-3.07 7.92-4.6l1.34-.78a1.78 1.78 0 0 1 1.56 0l1.16.66c.44.28.47.74-.03 1.09zm4.17-16.51C31.3 13.7 26.4 11.18 22 8.67c-1.89-1.23-4.08-1.2-5.98-.02-3.07 1.75-6.14 3.5-9.21 5.24v2.82c3.5-1.99 6.99-3.98 10.48-5.97 1.22-.6 2.1-.85 3.34-.04l13.26 7.54c.94.49 1.55 1.24 1.64 2.29v3.1c-.14-.09-.3-.18-.46-.26l-13.08-7.44c-1.89-1.23-4.08-1.2-5.98-.01-3.07 1.75-6.14 3.5-9.21 5.24v2.82c3.5-1.99 6.99-3.98 10.48-5.97 1.23-.64 2.19-.78 3.34-.04l13.26 7.54c1.4.72 1.64 1.61 1.64 3.03 0 .9-.16 1.69-.8 2.32-1.06-.6-12.73-7.24-12.73-7.24-1.89-1.23-4.08-1.2-5.98-.01-4.24 2.42-8.49 4.83-12.74 7.25-.69-.68-.81-1.37-.81-2.31V13.46c0-1.46.53-2.26 1.63-2.9 4.4-2.52 8.8-5.05 13.2-7.57 1.17-.64 2.16-.81 3.34-.04 4.4 2.52 8.8 5.05 13.2 7.58 1.16.58 1.78 1.57 1.71 2.86l-.01 2.99zM21 28.66l-1.01-.62c-.49-.3-.87-.2-1.21 0l-6.99 4.07c-.35.2-.56.54-.12.81l1.27.78c.44.27.79.15 1.14-.05l7.1-4.13c.34-.2.26-.59-.18-.86z" style="" fill="url(#SVGID_1_)"/></g></g><g id="editech_1_" class="st0" enable-background="new"><path class="st2" d="M53.45 15.19c-2.79 0-4.8.63-6.03 1.89-1.26 1.29-1.89 3.33-1.89 6.12s.63 4.83 1.89 6.09c1.23 1.29 3.24 1.92 6.03 1.92 3.99 0 6.63-1.23 7.47-4.83h-2.55c-.69 1.77-2.34 2.67-4.89 2.67-3.57 0-5.22-1.56-5.43-5.13h13.2v-.72c0-5.61-2.25-8.01-7.8-8.01zm-5.37 6.84c.27-3.33 2.01-4.68 5.4-4.68 3.36 0 5.04 1.35 5.31 4.68H48.08zm28.83-4.17c-1.11-1.77-3.12-2.67-6.09-2.67-2.55 0-4.38.63-5.52 1.89-1.17 1.29-1.74 3.33-1.74 6.12s.57 4.83 1.74 6.09c1.14 1.29 2.97 1.92 5.52 1.92 2.97 0 5.01-.9 6.06-2.67l.03 2.46h2.46V8.5h-2.46v9.36zM71.45 28.9c-3.81 0-5.43-1.74-5.43-5.7 0-3.99 1.62-5.7 5.43-5.7 3.75 0 5.4 1.71 5.4 5.7 0 3.96-1.65 5.7-5.4 5.7zM83.48 31h2.49V15.4h-2.49V31zm1.23-21.96c-.63 0-1.05.12-1.32.39s-.39.72-.39 1.35c0 .63.12 1.05.39 1.32s.69.42 1.32.42c.63 0 1.08-.15 1.35-.42s.42-.69.42-1.32c0-.63-.15-1.08-.42-1.35s-.72-.39-1.35-.39zm9.06 16.59v-7.92h4.92V15.4h-4.92v-3.45h-2.49v3.45h-2.7v2.31h2.7v8.22c0 3.57 1.71 5.07 5.7 5.07h1.86v-2.34h-1.83c-2.28 0-3.24-.9-3.24-3.03zm14.61-10.44c-2.79 0-4.8.63-6.03 1.89-1.26 1.29-1.89 3.33-1.89 6.12s.63 4.83 1.89 6.09c1.23 1.29 3.24 1.92 6.03 1.92 3.99 0 6.63-1.23 7.47-4.83h-2.55c-.69 1.77-2.34 2.67-4.89 2.67-3.57 0-5.22-1.56-5.43-5.13h13.2v-.72c0-5.61-2.25-8.01-7.8-8.01zm-5.37 6.84c.27-3.33 2.01-4.68 5.4-4.68 3.36 0 5.04 1.35 5.31 4.68h-10.71zm23.28-4.53c2.97 0 4.5 1.05 5.07 3.42h2.46c-.6-3.99-2.91-5.73-7.56-5.73-5.43 0-7.77 2.4-7.77 8.01 0 5.61 2.34 8.01 7.77 8.01 4.65 0 6.96-1.74 7.56-5.73h-2.46c-.57 2.37-2.1 3.42-5.07 3.42-3.72 0-5.34-1.74-5.34-5.7 0-3.99 1.59-5.7 5.34-5.7zm19.08-2.31c-2.91 0-4.89.87-5.94 2.61V8.5h-2.49V31h2.49v-7.8c0-4.05 1.53-5.7 5.28-5.7 3.33 0 4.8 1.38 4.8 4.5v9H152v-9c0-4.77-2.04-6.81-6.63-6.81z" id="editech" fill-rule="evenodd" clip-rule="evenodd" fill="#FFFFFF"/></g></g></svg>